<svg xmlns="http://www.w3.org/2000/svg" viewBox="0 0 180 180" width="180" height="180">
  <defs>
    <radialGradient id="sphereGrad_180" cx="48%" cy="45%" r="52%" fx="48%" fy="45%">
      <stop offset="0%" stop-color="#FFFFFF" stop-opacity="1" />
      <stop offset="22%" stop-color="#AEE1FA" stop-opacity="0.98" />
      <stop offset="52%" stop-color="#7EC8F0" />
      <stop offset="76%" stop-color="#4FA8DC" />
      <stop offset="92%" stop-color="#2A7EB8" />
      <stop offset="100%" stop-color="#1B4F7D" />
    </radialGradient>
    <filter id="softCenterGlow_180" x="-30%" y="-30%" width="160%" height="160%">
      <feGaussianBlur stdDeviation="1.8" result="blur" />
      <feComposite in="SourceGraphic" in2="blur" operator="over" />
    </filter>
  </defs>
  <rect width="180" height="180" fill="#FFFFFF" />

  <g transform="translate(90, 93.6) scale(0.12239999999999998) translate(-486, -210)">
    <!-- Arco azul-marinho oficial #2E2260 -->
    <path
      d="M 122 370
         C 142 320, 206 182, 326 84
         C 388 34, 452 0, 500 0
         C 548 0, 612 34, 674 84
         C 718 120, 742 186, 755 283
         C 745 220, 715 156, 650 114
         C 592 76, 540 106, 500 110
         C 458 114, 404 80, 344 116
         C 246 174, 178 266, 122 370 Z"
      fill="#2E2260"
    />
    <!-- Esfera central degradê azul -->
    <circle
      cx="486"
      cy="216"
      r="59"
      fill="url(#sphereGrad_180)"
    />
    <!-- Ponto de luz no centro -->
    <circle
      cx="486"
      cy="216"
      r="16"
      fill="#FFFFFF"
      opacity="0.85"
      filter="url(#softCenterGlow_180)"
    />
  </g>
</svg>